<svg width="10" height="10" viewBox="0 0 10 10" fill="none" xmlns="http://www.w3.org/2000/svg">
<path d="M7.62509 2.37917C7.58655 2.34054 7.54076 2.3099 7.49035 2.28899C7.43995 2.26808 7.38591 2.25732 7.33134 2.25732C7.27677 2.25732 7.22274 2.26808 7.17233 2.28899C7.12193 2.3099 7.07614 2.34054 7.03759 2.37917L5.00009 4.4125L2.96259 2.375C2.92402 2.33643 2.87822 2.30583 2.82782 2.28495C2.77742 2.26407 2.7234 2.25333 2.66884 2.25333C2.61429 2.25333 2.56027 2.26407 2.50987 2.28495C2.45947 2.30583 2.41367 2.33643 2.37509 2.375C2.33652 2.41358 2.30592 2.45937 2.28504 2.50978C2.26416 2.56018 2.25342 2.6142 2.25342 2.66875C2.25342 2.72331 2.26416 2.77733 2.28504 2.82773C2.30592 2.87813 2.33652 2.92393 2.37509 2.9625L4.41259 5L2.37509 7.0375C2.33652 7.07608 2.30592 7.12187 2.28504 7.17228C2.26416 7.22268 2.25342 7.2767 2.25342 7.33125C2.25342 7.38581 2.26416 7.43983 2.28504 7.49023C2.30592 7.54063 2.33652 7.58643 2.37509 7.625C2.41367 7.66358 2.45947 7.69418 2.50987 7.71505C2.56027 7.73593 2.61429 7.74668 2.66884 7.74668C2.7234 7.74668 2.77742 7.73593 2.82782 7.71505C2.87822 7.69418 2.92402 7.66358 2.96259 7.625L5.00009 5.5875L7.03759 7.625C7.07617 7.66358 7.12196 7.69418 7.17237 7.71505C7.22277 7.73593 7.27679 7.74668 7.33134 7.74668C7.3859 7.74668 7.43992 7.73593 7.49032 7.71505C7.54072 7.69418 7.58652 7.66358 7.62509 7.625C7.66367 7.58643 7.69427 7.54063 7.71515 7.49023C7.73602 7.43983 7.74677 7.38581 7.74677 7.33125C7.74677 7.2767 7.73602 7.22268 7.71515 7.17228C7.69427 7.12187 7.66367 7.07608 7.62509 7.0375L5.58759 5L7.62509 2.9625C7.78343 2.80417 7.78343 2.5375 7.62509 2.37917Z" fill="white"/>
</svg>
